<svg width="13" height="13" viewBox="0 0 13 13" fill="none" xmlns="http://www.w3.org/2000/svg">
<path d="M8.82184 0.53L7.69934 1.6525L11.1468 5.1L12.2693 3.9775C12.6093 3.64 12.7993 3.18 12.7993 2.7C12.7993 2.22 12.6093 1.76 12.2693 1.4225L11.3768 0.53C11.0393 0.19 10.5793 0 10.0993 0C9.61934 0 9.15934 0.19 8.82184 0.53ZM6.85184 2.5L1.47184 7.8775C1.20434 8.145 1.00934 8.48 0.906844 8.845L0.0218441 12.04C-0.0356559 12.2475 0.021844 12.4725 0.176844 12.625C0.331844 12.7775 0.554344 12.8375 0.761844 12.78L3.95684 11.8925C4.32184 11.79 4.65434 11.5975 4.92434 11.3275L10.2993 5.9475L6.85184 2.5Z" fill="black"/>
</svg>
