<svg width="22" height="22" viewBox="0 0 22 22" fill="none" xmlns="http://www.w3.org/2000/svg">
<path d="M11.6301 5.76723L16.4041 7.03823M10.6081 9.56323L12.9941 10.1992M10.7271 16.7162L11.6811 16.9712C14.3811 17.6912 15.7311 18.0502 16.7951 17.4392C17.8581 16.8292 18.2201 15.4862 18.9431 12.8022L19.9661 9.00523C20.6901 6.32023 21.0511 4.97823 20.4371 3.92023C19.8231 2.86223 18.4741 2.50323 15.7731 1.78423L14.8191 1.52923C12.1191 0.809229 10.7691 0.450229 9.70611 1.06123C8.64211 1.67123 8.28011 3.01423 7.55611 5.69823L6.53411 9.49523C5.81011 12.1802 5.44811 13.5222 6.06311 14.5802C6.67711 15.6372 8.02711 15.9972 10.7271 16.7162Z" stroke="#5F6F6C" stroke-width="1.5" stroke-linecap="round"/>
<path d="M10.75 19.6963L9.79803 19.9563C7.10403 20.6893 5.75803 21.0563 4.69603 20.4333C3.63603 19.8113 3.27403 18.4423 2.55303 15.7053L1.53203 11.8333C0.810027 9.09628 0.449027 7.72728 1.06203 6.64928C1.59203 5.71628 2.75003 5.75028 4.25003 5.75028" stroke="#5F6F6C" stroke-width="1.5" stroke-linecap="round"/>
</svg>
