<svg width="20" height="20" viewBox="0 0 20 20" fill="none" xmlns="http://www.w3.org/2000/svg">
<path d="M9.16699 14.1667H10.8337V10.8334H14.167V9.16669H10.8337V5.83335H9.16699V9.16669H5.83366V10.8334H9.16699V14.1667ZM10.0003 18.3334C8.84755 18.3334 7.76421 18.1181 6.75033 17.6875C5.73644 17.2431 4.85449 16.6459 4.10449 15.8959C3.35449 15.1459 2.75727 14.2639 2.31283 13.25C1.88227 12.2361 1.66699 11.1528 1.66699 10C1.66699 8.84724 1.88227 7.76391 2.31283 6.75002C2.75727 5.73613 3.35449 4.85419 4.10449 4.10419C4.85449 3.35419 5.73644 2.76391 6.75033 2.33335C7.76421 1.88891 8.84755 1.66669 10.0003 1.66669C11.1531 1.66669 12.2364 1.88891 13.2503 2.33335C14.2642 2.76391 15.1462 3.35419 15.8962 4.10419C16.6462 4.85419 17.2364 5.73613 17.667 6.75002C18.1114 7.76391 18.3337 8.84724 18.3337 10C18.3337 11.1528 18.1114 12.2361 17.667 13.25C17.2364 14.2639 16.6462 15.1459 15.8962 15.8959C15.1462 16.6459 14.2642 17.2431 13.2503 17.6875C12.2364 18.1181 11.1531 18.3334 10.0003 18.3334ZM10.0003 16.6667C11.8614 16.6667 13.4378 16.0209 14.7295 14.7292C16.0212 13.4375 16.667 11.8611 16.667 10C16.667 8.13891 16.0212 6.56252 14.7295 5.27085C13.4378 3.97919 11.8614 3.33335 10.0003 3.33335C8.13921 3.33335 6.56283 3.97919 5.27116 5.27085C3.97949 6.56252 3.33366 8.13891 3.33366 10C3.33366 11.8611 3.97949 13.4375 5.27116 14.7292C6.56283 16.0209 8.13921 16.6667 10.0003 16.6667Z" fill="#5F6F6C"/>
</svg>
